<?xml version="1.0" encoding="utf-8"?>
<!-- Generator: Adobe Illustrator 17.0.1, SVG Export Plug-In . SVG Version: 6.00 Build 0)  -->
<!DOCTYPE svg PUBLIC "-//W3C//DTD SVG 1.1//EN" "http://www.w3.org/Graphics/SVG/1.1/DTD/svg11.dtd">
<svg version="1.1" id="Layer_1" xmlns="http://www.w3.org/2000/svg" xmlns:xlink="http://www.w3.org/1999/xlink" x="0px" y="0px"
	 width="16378.896px" height="7137.859px" viewBox="-7907.429 -5149.187 16378.896 7137.859"
	 enable-background="new -7907.429 -5149.187 16378.896 7137.859" xml:space="preserve">
<path fill="#F1F2F2" d="M-1203.194-1312.103"/>
<g id="XMLID_2_">
	<g>
		<path fill="#F1F2F2" d="M7819.747-4619.343l670.968,7.311c0,0-1247.455,3337.03-1349.305,3608.996
			c-33.093,88.079-83.354,183.022-108.816,300.748c-64.411,296.019-130.568,945.218-130.568,945.218l-613.951,6.013
			c0,0,95.543-676.684,91.622-1037.161c-3.471-314.924-84.865-629.853-130.569-945.641
			c-46.129-319.653-108.816-945.641-108.816-945.641h631.12l87.064,687.851L7819.747-4619.343z"/>
		<path fill="#F1F2F2" d="M6549.213-3915.993c123.84,147.361,199.774,960.423,199.774,960.423s-647.892,19.07-1000.439,19.07
			c-82.269,0-304.697,0-304.697,0l-369.981,3182h-565.835c0,0,352.124-3456.889,435.266-4083.304
			c27-202.792,184.541-169.696,450.713-169.696c130.808,0,317.732,0,425.039,0C6093.492-4007.5,6414.272-4076.259,6549.213-3915.993
			z"/>
		<path fill="#F1F2F2" d="M4448.182-3190.774c72.041,513-65.284,1718.575-65.284,1718.575s-717.098-23.635-1109.918,0
			c-122.091,7.297-268.345-26.202-304.697,85.93c-51.136,157.252,18.706,399.138,77.923,501.392
			c68.12,117.726,200.861,131.037,248.527,143.077c318.819,79.917,986.079,20.621,986.079,20.621L4165.239,289.334
			c0,0-942.997,93.227-1414.615-128.888c-93.157-43.823-180.407-132.334-239.386-257.79
			c-16.109-34.377-30.046-81.201-45.254-121.591c-12.188-32.229-47.666-138.348-63.536-222.129
			c-107.73-566.701,12.612-1652.401,130.57-2234.142c13.698-67.458,30.893-152.955,48.963-225.562
			c22.627-90.66,41.783-192.914,59.853-247.047c12.188-37.377,27.211-61.445,39.822-96.673
			c14.572-41.675,31.556-82.066,47.215-118.145c43.532-99.673,92.919-170.144,152.348-257.791
			c196.516-290.438,552.137-515.999,979.349-429.637c160.827,32.648,403.71,146.077,522.304,472.609
			C4414.666-3490.239,4430.35-3317.095,4448.182-3190.774z M3914.989-2367.148c0,0,17.62-204.075-59.853-440.38
			c-66.159-201.508-127.31-248.331-301.412-259.074c-491.622-30.499-482.057,688.711-482.057,688.711L3914.989-2367.148z"/>
		<path fill="#F1F2F2" d="M1852.933-4010.536l548.64-5.16c0,0-305.783,2856.196-461.603,4261.196c-236.577,0-436.564,0-631.12,0
			c-441.148,0-833.969,106.55-1001.101-516.852c-162.125-605.362-7.392-1601.491,65.284-2277.743
			c51.348-478.622,159.529-1457.241,159.529-1457.241l568.458-10.471c0,0-160.615,1523-227.436,2283.465
			c-23.952,272.398-73.339,528.851-21.753,730.359c48.963,191.616,117.534,205.353,326.45,214.798
			c66.159,3.014,282.918-0.01,282.918-0.01L1852.933-4010.536z"/>
		<path fill="#F1F2F2" d="M46.584-3537.927c62.688,899.678-177.81,1892.57-343.433,2756.155
			c168.881,30.081,316.858-4.73,327.536,20.188C41.788-729.355-82.475,269.131-125.795,271.712
			c-134.067,6.878-578.235,14.175-763.438,14.175c-604.36,0-1169.771,77.768-1458.12-515.567
			c-117.083-241.034-198.053-654.347-217.633-945.217c-32.642-485.5,8.267-1019.972,65.285-1460.784
			c51.587-397.854,117.746-773.357,217.633-1117.064c253.985-875.179,695.769-1524.796,1436.368-1374.854
			c143.631,29.215,349.951,153.388,478.798,300.749c8.929,10.311,40.034,59.296,47.215,67.89
			C-145.561-4540.278,13.067-4018.265,46.584-3537.927z M-715.106-1948.254c57.442-403.002,141.247-839.95,130.569-1202.994
			c-11.525-388.395-176.486-741.993-282.917-816.315c-320.568-223.413-620.681,88.93-739.937,343.72
			c-154.309,329.964-206.531,715.359-261.165,1245.966c-40.697,393.976-74.002,809.87,0,1117.064
			c131.02,543.066,539.499,424.488,979.349,429.637C-823.922-1176.613-769.951-1564.575-715.106-1948.254z"/>
		<path fill="#F1F2F2" d="M-2627.436-4005.93c-36.564,328.68-73.127,701.429-111.652,1025.429c-203.061,0-406.307,0-609.367,0
			c47.215-355,83.354-717.648,130.569-1030.87C-3022.879-4011.37-2841.598-4005.93-2627.436-4005.93z"/>
		<path fill="#F1F2F2" d="M-3370.208-2679.5c195.881,0,391.734,0,587.615,0c-76.836,834-228.947,2194.181-348.202,3136.818
			c-74.637,589.903-124.475,1020.62-326.449,1332.112c-18.07,27.932-28.509,14.715-43.532,43.066
			c-37.226,70.039-209.366,151.293-304.697,171.914c-154.945,33.08-330.159,4.324-520.581-3.405
			c49.837-359.612,106.193-791.384,150.6-1113.618c464.199,110.848,475.963-755.741,565.835-1590.096
			C-3557.609-1184.779-3400.041-2485.5-3370.208-2679.5z"/>
		<path fill="#F1F2F2" d="M-4741.291-487.47l-12.612,64.444c-214.586,824.91-594.795,1331.031-1137.129,1353.368
			c-253.534,10.311-495.119-118.145-652.899-257.79c-340.598-302.032-626.987-862.287-783.469-1460.784
			c-224.389-857.976-264.874-2051.525,201.736-2943.027c7.18,0-56.594,193.333-49.414,193.333l-12.851,82.498
			c-336.226,2078.173,699.69,3859.043,1706.673,3655.386C-5239.245,150.986-4930.626-110.669-4741.291-487.47z"/>
		<path fill="#F1F2F2" d="M-4701.468-3081.642c-39.399,178.306-266.173,515.148-366.272,557.241
			c-396.53,166.698-650.488-204.508-783.468-626.848c-19.792-63.16-56.355-235.439-62.9-279.262
			c-51.586-346.288-27.847-870.031,126.012-1141.131c-46.367,257.791-53.097,557.241-28.721,751.871
			c14.811,117.727,59.853,323.085,104.895,452.42c82.056,235.439,134.066,292.587,239.386,417.61
			c47.453,56.282,98.377,101.389,120.342,113.862C-5252.307-2777.894-5041.404-2624.938-4701.468-3081.642z"/>
		<path fill="#F1F2F2" d="M-5350.658-1346.743c253.322,3.432,517.958-230.291,674.652-558.539
			c-137.113,686.995-534.067,1128.672-1066.386,988.176c-445.732-117.727-870.32-1003.216-914.064-1890.421
			c-31.98-645.752,82.056-1031.148,269.855-1498.594c-65.285,244.467-89.661,433.069-95.754,553.377
			C-6553.734-2355.986-5917.156-1354.054-5350.658-1346.743z"/>
	</g>
</g>
</svg>
