<?xml version="1.0" encoding="utf-8"?>
<!-- Generator: Adobe Illustrator 17.0.1, SVG Export Plug-In . SVG Version: 6.00 Build 0)  -->
<!DOCTYPE svg PUBLIC "-//W3C//DTD SVG 1.1//EN" "http://www.w3.org/Graphics/SVG/1.1/DTD/svg11.dtd">
<svg version="1.1" xmlns="http://www.w3.org/2000/svg" xmlns:xlink="http://www.w3.org/1999/xlink" x="0px" y="0px"
	 width="141.732px" height="141.732px" viewBox="0 0 141.732 141.732" enable-background="new 0 0 141.732 141.732"
	 xml:space="preserve">
<g id="Layer_1">
	<g id="code_x5F_html5">
	</g>
	<g>
		<polygon fill="#E6A329" points="151.417,1.926 70.866,1.926 70.866,1.926 -9.685,1.926 5.411,165.696 70.866,184.253 
			70.866,184.253 70.866,184.253 70.866,184.253 70.866,184.253 136.298,165.696 		"/>
		<polygon fill="#F1BF22" points="70.866,15.266 70.866,170.384 70.866,170.384 123.87,155.358 136.778,15.266 		"/>
		<polygon fill="#FFFFFF" points="113.036,35.362 31.51,35.362 25.844,96.682 25.964,96.298 95.216,96.298 92.956,122.235 
			70.866,128.604 48.438,122.139 47.093,106.442 26.732,106.442 29.642,137.811 70.866,149.518 112.091,137.811 117.765,76.251 
			44.28,76.251 45.217,55.722 96.222,55.722 96.972,67.471 117.515,67.471 		"/>
		<g>
			<path fill="#EBEBEB" d="M70.866,35.362H31.51l-5.666,61.32l0.12-0.385h44.902V76.251H47.115l0.937-20.528h22.815V35.362z
				 M47.093,106.442h-20.36l2.909,31.369l41.225,11.682v-20.889l-22.428-6.465L47.093,106.442z"/>
		</g>
		<g>
			<polygon fill="#FFFFFF" points="55.189,-22.232 40.863,-22.232 40.863,-11.944 55.189,-11.944 62.859,-11.944 65.455,-11.944 
				65.455,-42.52 55.189,-42.52 			"/>
			<path fill="#FFFFFF" d="M100.87-42.365H75.882c0,0,0,5.375,0,10.707c3.34,3.344,5.086,4.943,9.922,9.779
				c-2.828,0-9.922,0.01-9.922,0.01v9.768h24.988v-9.77l-9.98-9.787h9.98V-42.365z"/>
		</g>
	</g>
</g>
<g id="Layer_2">
</g>
</svg>
