<?xml version="1.0" encoding="utf-8"?>
<!-- Generator: Adobe Illustrator 17.0.1, SVG Export Plug-In . SVG Version: 6.00 Build 0)  -->
<!DOCTYPE svg PUBLIC "-//W3C//DTD SVG 1.1//EN" "http://www.w3.org/Graphics/SVG/1.1/DTD/svg11.dtd">
<svg version="1.1" id="Layer_1" xmlns="http://www.w3.org/2000/svg" xmlns:xlink="http://www.w3.org/1999/xlink" x="0px" y="0px"
	 width="844.286px" height="802.041px" viewBox="0 0 844.286 802.041" enable-background="new 0 0 844.286 802.041"
	 xml:space="preserve">
<g>
	<g>
		<linearGradient id="SVGID_1_" gradientUnits="userSpaceOnUse" x1="98.3753" y1="53.538" x2="801.2134" y2="756.3761">
			<stop  offset="0" style="stop-color:#32297C"/>
			<stop  offset="1" style="stop-color:#282761"/>
		</linearGradient>
		<rect x="90.171" y="61.743" opacity="0.95" fill="url(#SVGID_1_)" width="719.247" height="686.429"/>
		<g>
			
				<image overflow="visible" opacity="0.4" width="820" height="789" xlink:href="FA0A594D.png"  transform="matrix(1 0 0 1 38.8776 14.4082)">
			</image>
			<g>
				<g>
					<linearGradient id="SVGID_2_" gradientUnits="userSpaceOnUse" x1="62.3508" y1="24.8195" x2="835.6084" y2="780.2825">
						<stop  offset="0" style="stop-color:#95C8FD"/>
						<stop  offset="1" style="stop-color:#73B4F4"/>
					</linearGradient>
					<path fill="url(#SVGID_2_)" d="M59.184,28.061v748.979h779.592V28.061H59.184z M776.801,717.7H122.79V89.007h654.011V717.7z"/>
				</g>
			</g>
		</g>
		<g>
			<g opacity="0.1">
				<path d="M264.105,248.884c21.039-3.763,50.204-6.583,89.885-6.583c43.032,0,74.586,8.932,95.144,25.858
					c19.123,15.515,31.559,40.434,31.559,70.053c0,30.089-9.557,55.008-27.728,71.936c-23.426,23.038-60.244,33.849-101.84,33.849
					c-10.997,0-21.037-0.471-28.69-1.882v119.424h-58.33V248.884z M322.435,396.515c7.177,1.882,16.739,2.35,28.69,2.35
					c43.986,0,70.762-21.157,70.762-58.301c0-35.263-24.865-54.067-65.508-54.067c-16.25,0-27.725,1.409-33.944,2.822V396.515z"/>
			</g>
			<g>
				<linearGradient id="SVGID_3_" gradientUnits="userSpaceOnUse" x1="262.0373" y1="395.4507" x2="650.1996" y2="395.4507">
					<stop  offset="0" style="stop-color:#95C8FD"/>
					<stop  offset="1" style="stop-color:#73B4F4"/>
				</linearGradient>
				<path fill="url(#SVGID_3_)" d="M264.105,242.415c21.039-3.763,50.204-6.583,89.885-6.583c43.032,0,74.586,8.932,95.144,25.858
					c19.123,15.515,31.559,40.434,31.559,70.053c0,30.089-9.557,55.008-27.728,71.936c-23.426,23.038-60.244,33.849-101.84,33.849
					c-10.997,0-21.037-0.471-28.69-1.882V555.07h-58.33V242.415z M322.435,390.045c7.177,1.882,16.739,2.35,28.69,2.35
					c43.986,0,70.762-21.157,70.762-58.301c0-35.263-24.865-54.067-65.508-54.067c-16.25,0-27.725,1.409-33.944,2.822V390.045z"/>
			</g>
		</g>
		<g>
			<g opacity="0.1">
				<path d="M498.84,508.41c13.388,7.999,38.731,16.451,59.768,16.451c25.819,0,37.284-10.339,37.284-25.381
					c0-15.52-9.557-23.513-38.241-33.388c-45.423-15.512-64.551-39.964-64.075-66.758c0-40.432,33.953-71.936,87.982-71.936
					c25.814,0,48.288,6.582,61.671,13.636l-11.47,40.902c-10.042-5.644-28.694-13.163-49.245-13.163
					c-21.036,0-32.516,9.875-32.516,23.977c0,14.579,10.994,21.627,40.645,31.973c42.068,15.044,61.671,36.203,62.152,70.05
					c0,41.378-32.987,71.944-94.673,71.944c-28.208,0-53.552-7.058-70.752-16.46L498.84,508.41z"/>
			</g>
			<g>
				<linearGradient id="SVGID_4_" gradientUnits="userSpaceOnUse" x1="262.0426" y1="440.5875" x2="650.2079" y2="440.5875">
					<stop  offset="0" style="stop-color:#95C8FD"/>
					<stop  offset="1" style="stop-color:#73B4F4"/>
				</linearGradient>
				<path fill="url(#SVGID_4_)" d="M498.84,501.941c13.388,7.999,38.731,16.451,59.768,16.451c25.819,0,37.284-10.339,37.284-25.381
					c0-15.52-9.557-23.513-38.241-33.388c-45.423-15.512-64.551-39.964-64.075-66.758c0-40.432,33.953-71.936,87.982-71.936
					c25.814,0,48.288,6.582,61.671,13.636l-11.47,40.902c-10.042-5.644-28.694-13.163-49.245-13.163
					c-21.036,0-32.516,9.875-32.516,23.977c0,14.579,10.994,21.627,40.645,31.973c42.068,15.044,61.671,36.203,62.152,70.05
					c0,41.378-32.987,71.944-94.673,71.944c-28.208,0-53.552-7.058-70.752-16.46L498.84,501.941z"/>
			</g>
		</g>
	</g>
</g>
</svg>
